<?xml version="1.0" encoding="UTF-8" standalone="no"?>
<!-- Created with Inkscape (http://www.inkscape.org/) -->
<svg
   xmlns:dc="http://purl.org/dc/elements/1.1/"
   xmlns:cc="http://creativecommons.org/ns#"
   xmlns:rdf="http://www.w3.org/1999/02/22-rdf-syntax-ns#"
   xmlns:svg="http://www.w3.org/2000/svg"
   xmlns="http://www.w3.org/2000/svg"
   xmlns:sodipodi="http://sodipodi.sourceforge.net/DTD/sodipodi-0.dtd"
   xmlns:inkscape="http://www.inkscape.org/namespaces/inkscape"
   id="svg2"
   sodipodi:version="0.32"
   inkscape:version="0.46"
   width="128"
   height="128"
   version="1.0"
   sodipodi:docname="Wegzeichen_Alte2.svg"
   inkscape:output_extension="org.inkscape.output.svg.inkscape">
  <metadata
     id="metadata7">
    <rdf:RDF>
      <cc:Work
         rdf:about="">
        <dc:format>image/svg+xml</dc:format>
        <dc:type
           rdf:resource="http://purl.org/dc/dcmitype/StillImage" />
        <cc:license
           rdf:resource="http://creativecommons.org/licenses/publicdomain/" />
        <dc:title>Dresdner Heide, Wegzeichen Alte 2</dc:title>
        <dc:creator>
          <cc:Agent>
            <dc:title>Colin Marquardt</dc:title>
          </cc:Agent>
        </dc:creator>
        <dc:subject>
          <rdf:Bag>
            <rdf:li>Dresdner Heide Wegzeichen</rdf:li>
          </rdf:Bag>
        </dc:subject>
      </cc:Work>
      <cc:License
         rdf:about="http://creativecommons.org/licenses/publicdomain/">
        <cc:permits
           rdf:resource="http://creativecommons.org/ns#Reproduction" />
        <cc:permits
           rdf:resource="http://creativecommons.org/ns#Distribution" />
        <cc:permits
           rdf:resource="http://creativecommons.org/ns#DerivativeWorks" />
      </cc:License>
    </rdf:RDF>
  </metadata>
  <defs
     id="defs5">
    <inkscape:perspective
       sodipodi:type="inkscape:persp3d"
       inkscape:vp_x="0 : 526.18109 : 1"
       inkscape:vp_y="0 : 1000 : 0"
       inkscape:vp_z="744.09448 : 526.18109 : 1"
       inkscape:persp3d-origin="372.04724 : 350.78739 : 1"
       id="perspective9" />
  </defs>
  <sodipodi:namedview
     inkscape:window-height="976"
     inkscape:window-width="1679"
     inkscape:pageshadow="2"
     inkscape:pageopacity="0.0"
     guidetolerance="10.0"
     gridtolerance="10.0"
     objecttolerance="10.0"
     borderopacity="1.0"
     bordercolor="#666666"
     pagecolor="#ffffff"
     id="base"
     showgrid="false"
     inkscape:zoom="4.3144104"
     inkscape:cx="46.361038"
     inkscape:cy="81.343268"
     inkscape:window-x="1"
     inkscape:window-y="49"
     inkscape:current-layer="layer1"
     showguides="true"
     inkscape:guide-bbox="true">
    <sodipodi:guide
       orientation="0,1"
       position="19.469636,119.13563"
       id="guide2509" />
    <sodipodi:guide
       orientation="0,1"
       position="2.7813766,9.2712552"
       id="guide2511" />
  </sodipodi:namedview>
  <g
     inkscape:groupmode="layer"
     id="layer2"
     inkscape:label="Hintergrund">
    <rect
       style="fill:#ffffff"
       id="rect2414"
       width="128"
       height="128"
       x="0"
       y="0" />
  </g>
  <g
     inkscape:groupmode="layer"
     id="layer1"
     inkscape:label="Wegzeichen"
     transform="translate(-14.388239,-20.759691)">
    <path
       style="fill:#aa0000;fill-rule:evenodd;stroke:none;stroke-width:1px;stroke-linecap:butt;stroke-linejoin:miter;stroke-opacity:1"
       d="M 22.155418,51.144771 C 21.45843,50.311062 37.745695,30.227648 39.975236,29.984693 C 41.487767,28.966319 90.121312,33.738702 115.3187,35.396695 C 118.18384,36.170789 128.6479,34.686991 122.39199,38.025589 C 96.426439,57.471568 49.589014,97.380845 47.703883,99.512105 C 46.389631,105.68432 54.132639,108.76984 59.066488,111.22466 C 71.507691,117.17964 76.188173,119.71688 86.060253,124.95042 C 95.005338,130.4647 106.55683,131.40726 117.04394,129.80577 C 123.19426,128.18913 129.4132,124.01858 132.51628,118.7544 C 135.6712,112.63716 134.93199,123.80784 132.78541,125.405 C 128.16369,131.10496 121.50795,135.48561 113.79748,137.17124 C 106.29665,138.4669 98.474976,140.26317 90.758872,139.48844 C 80.750761,137.33704 71.194237,133.90297 61.964169,129.88234 C 51.307465,125.58693 41.561788,119.66538 32.856377,112.73903 C 28.292161,109.47813 24.724587,106.87734 29.948054,102.96097 C 43.188611,90.504364 65.113414,73.141161 84.13117,59.737876 C 92.378811,55.507321 81.465645,50.209087 75.457699,50.186695 C 61.812055,48.182356 35.396406,47.719594 32.228607,48.133705 C 28.681754,48.545132 22.551603,51.885814 22.155418,51.144771 z"
       id="path2435"
       sodipodi:nodetypes="ccccccccccccccccccc" />
  </g>
</svg>
