<?xml version="1.0" encoding="UTF-8" standalone="no"?>
<!-- Created with Inkscape (http://www.inkscape.org/) -->
<svg
   xmlns:dc="http://purl.org/dc/elements/1.1/"
   xmlns:cc="http://creativecommons.org/ns#"
   xmlns:rdf="http://www.w3.org/1999/02/22-rdf-syntax-ns#"
   xmlns:svg="http://www.w3.org/2000/svg"
   xmlns="http://www.w3.org/2000/svg"
   xmlns:sodipodi="http://sodipodi.sourceforge.net/DTD/sodipodi-0.dtd"
   xmlns:inkscape="http://www.inkscape.org/namespaces/inkscape"
   id="svg2"
   sodipodi:version="0.32"
   inkscape:version="0.46"
   width="128"
   height="128"
   version="1.0"
   sodipodi:docname="Wegzeichen_Alte1.svg"
   inkscape:output_extension="org.inkscape.output.svg.inkscape">
  <metadata
     id="metadata7">
    <rdf:RDF>
      <cc:Work
         rdf:about="">
        <dc:format>image/svg+xml</dc:format>
        <dc:type
           rdf:resource="http://purl.org/dc/dcmitype/StillImage" />
        <dc:creator>
          <cc:Agent>
            <dc:title>Colin Marquardt</dc:title>
          </cc:Agent>
        </dc:creator>
        <cc:license
           rdf:resource="http://creativecommons.org/licenses/publicdomain/" />
        <dc:title>Dresdner Heide, Wegzeichen Alte 1</dc:title>
        <dc:subject>
          <rdf:Bag>
            <rdf:li>Dresdner Heide Wegzeichen</rdf:li>
          </rdf:Bag>
        </dc:subject>
      </cc:Work>
      <cc:License
         rdf:about="http://creativecommons.org/licenses/publicdomain/">
        <cc:permits
           rdf:resource="http://creativecommons.org/ns#Reproduction" />
        <cc:permits
           rdf:resource="http://creativecommons.org/ns#Distribution" />
        <cc:permits
           rdf:resource="http://creativecommons.org/ns#DerivativeWorks" />
      </cc:License>
    </rdf:RDF>
  </metadata>
  <defs
     id="defs5">
    <inkscape:perspective
       sodipodi:type="inkscape:persp3d"
       inkscape:vp_x="0 : 526.18109 : 1"
       inkscape:vp_y="0 : 1000 : 0"
       inkscape:vp_z="744.09448 : 526.18109 : 1"
       inkscape:persp3d-origin="372.04724 : 350.78739 : 1"
       id="perspective9" />
    <inkscape:perspective
       id="perspective2463"
       inkscape:persp3d-origin="372.04724 : 350.78739 : 1"
       inkscape:vp_z="744.09448 : 526.18109 : 1"
       inkscape:vp_y="0 : 1000 : 0"
       inkscape:vp_x="0 : 526.18109 : 1"
       sodipodi:type="inkscape:persp3d" />
  </defs>
  <sodipodi:namedview
     inkscape:window-height="976"
     inkscape:window-width="1679"
     inkscape:pageshadow="2"
     inkscape:pageopacity="0.0"
     guidetolerance="10.0"
     gridtolerance="10.0"
     objecttolerance="10.0"
     borderopacity="1.0"
     bordercolor="#666666"
     pagecolor="#ffffff"
     id="base"
     showgrid="false"
     inkscape:zoom="2.1572052"
     inkscape:cx="-59.627424"
     inkscape:cy="90.25981"
     inkscape:window-x="1"
     inkscape:window-y="49"
     inkscape:current-layer="layer1"
     showguides="true"
     inkscape:guide-bbox="true">
    <sodipodi:guide
       orientation="0,1"
       position="178.47166,118"
       id="guide2517" />
    <sodipodi:guide
       orientation="0,1"
       position="-29.204454,10"
       id="guide2519" />
  </sodipodi:namedview>
  <g
     inkscape:groupmode="layer"
     id="layer2"
     inkscape:label="Hintergrund">
    <rect
       style="fill:#ffffff"
       id="rect2414"
       width="128"
       height="128"
       x="0"
       y="0" />
  </g>
  <g
     inkscape:groupmode="layer"
     id="layer1"
     inkscape:label="Wegzeichen"
     transform="translate(-14.388239,-20.759691)">
    <g
       id="g2469"
       transform="matrix(0.8175188,0,0,0.8175188,-107.31961,-7.8998698)">
      <path
         style="fill:#ac353d"
         d="M 85.350202,8.0751518 C 84.298357,7.7385614 82.024798,8.3967611 80.75,9.46875 C 80.061421,10.047782 79.326436,10.972129 77.6875,12.375 C 69.50535,19.37861 66.389778,20.988591 57.6875,22.6875 C 47.75588,24.62642 44.687498,26.223831 44.6875,29.5 C 44.6875,32.88719 46.361572,33.81856 53.5,34.3125 C 57.46323,34.58674 60.211291,35.291821 60.8125,36.1875 C 61.34059,36.97425 61.493081,39.843749 61.15625,42.59375 C 60.36659,49.04068 60.479591,89.84417 61.3125,97.4375 C 61.84297,102.27365 61.61419,103.70944 60,105.9375 C 57.76685,117.294 55.888829,123.41027 52.6875,132.28125 C 51.07508,135.73925 52.114679,140.09375 54.5625,140.09375 C 59.89217,138.79469 63.847634,134.76638 67.34375,130.75 C 72.13099,124.96435 77.415587,119.83241 79.375,119.0625 C 80.99427,118.42624 81.713452,117.02585 82.21875,113.65625 C 82.59309,111.15999 82.61968,108.41318 82.28125,107.53125 C 81.94282,106.64932 81.930018,104.40188 82.122343,102.06769 C 82.322582,99.637448 82.79346,98.161187 82.333249,96.375 C 82.562054,88.783583 82.97014,80.079129 82.902961,71.915359 C 82.866992,69.587522 82.437879,65.002791 82.59375,61.3125 C 82.7493,57.629758 82.903117,50.245951 82.9375,44.90625 C 84.154885,36.541563 83.009421,28.003237 85.125,19.5625 C 85.98047,18.25688 86.368799,15.234959 86.6875,13.125 C 86.6875,13.125 87.295926,9.9049848 86.6875,9.09375 C 86.178603,8.4152202 86.074519,8.3069332 85.350202,8.0751518 z"
         transform="translate(161.33764,39.302201)"
         id="path2475"
         sodipodi:nodetypes="ccsssssssccccssssccsccccc" />
    </g>
  </g>
</svg>
