<?xml version="1.0" encoding="UTF-8" standalone="no"?>
<!-- Created with Inkscape (http://www.inkscape.org/) -->
<svg
   xmlns:dc="http://purl.org/dc/elements/1.1/"
   xmlns:cc="http://creativecommons.org/ns#"
   xmlns:rdf="http://www.w3.org/1999/02/22-rdf-syntax-ns#"
   xmlns:svg="http://www.w3.org/2000/svg"
   xmlns="http://www.w3.org/2000/svg"
   xmlns:sodipodi="http://sodipodi.sourceforge.net/DTD/sodipodi-0.dtd"
   xmlns:inkscape="http://www.inkscape.org/namespaces/inkscape"
   id="svg2"
   sodipodi:version="0.32"
   inkscape:version="0.46"
   width="128"
   height="128"
   version="1.0"
   sodipodi:docname="Wegzeichen_Kuhschwanz.svg"
   inkscape:output_extension="org.inkscape.output.svg.inkscape">
  <metadata
     id="metadata7">
    <rdf:RDF>
      <cc:Work
         rdf:about="">
        <dc:format>image/svg+xml</dc:format>
        <dc:type
           rdf:resource="http://purl.org/dc/dcmitype/StillImage" />
        <cc:license
           rdf:resource="http://creativecommons.org/licenses/publicdomain/" />
        <dc:title>Dresdner Heide, Wegzeichen Kuhschwanz (auch Tarischer Weg, Dörnichtweg)</dc:title>
        <dc:creator>
          <cc:Agent>
            <dc:title>M. Ruttkowski, Colin Marquardt</dc:title>
          </cc:Agent>
        </dc:creator>
        <dc:subject>
          <rdf:Bag>
            <rdf:li>Dresdner Heide</rdf:li>
            <rdf:li>Wegzeichen</rdf:li>
            <rdf:li>Kuhschwanz</rdf:li>
            <rdf:li>Tarischer Weg</rdf:li>
            <rdf:li>Dörnichtweg</rdf:li>
          </rdf:Bag>
        </dc:subject>
        <dc:description>* de: Dieses Bild zeigt ein historisches Wegzeichen der Dresdner Heide
* en: This picture shows a historical way sign, as used in a forest in Dresden / Germany</dc:description>
        <dc:contributor>
          <cc:Agent>
            <dc:title>* Neugestaltung: M. Ruttkowski, 1985
* Wiedereinrichtung: Interessengemeinschaft/ Arbeitskreis Dresdner Heide (im Landesverein Sächsischer Heimatschutz), 1985-95
* Pflege: Arbeitskreis Dresdner Heide und Privatpersonen</dc:title>
          </cc:Agent>
        </dc:contributor>
        <dc:date>2009-04-30</dc:date>
      </cc:Work>
      <cc:License
         rdf:about="http://creativecommons.org/licenses/publicdomain/">
        <cc:permits
           rdf:resource="http://creativecommons.org/ns#Reproduction" />
        <cc:permits
           rdf:resource="http://creativecommons.org/ns#Distribution" />
        <cc:permits
           rdf:resource="http://creativecommons.org/ns#DerivativeWorks" />
      </cc:License>
    </rdf:RDF>
  </metadata>
  <defs
     id="defs5">
    <inkscape:perspective
       sodipodi:type="inkscape:persp3d"
       inkscape:vp_x="0 : 526.18109 : 1"
       inkscape:vp_y="0 : 1000 : 0"
       inkscape:vp_z="744.09448 : 526.18109 : 1"
       inkscape:persp3d-origin="372.04724 : 350.78739 : 1"
       id="perspective9" />
    <inkscape:perspective
       id="perspective2553"
       inkscape:persp3d-origin="372.04724 : 350.78739 : 1"
       inkscape:vp_z="744.09448 : 526.18109 : 1"
       inkscape:vp_y="0 : 1000 : 0"
       inkscape:vp_x="0 : 526.18109 : 1"
       sodipodi:type="inkscape:persp3d" />
  </defs>
  <sodipodi:namedview
     inkscape:window-height="978"
     inkscape:window-width="1680"
     inkscape:pageshadow="2"
     inkscape:pageopacity="0.0"
     guidetolerance="10.0"
     gridtolerance="10000"
     objecttolerance="10.0"
     borderopacity="1.0"
     bordercolor="#666666"
     pagecolor="#ffffff"
     id="base"
     showgrid="false"
     inkscape:zoom="1.5253744"
     inkscape:cx="448.86419"
     inkscape:cy="-26.716744"
     inkscape:window-x="0"
     inkscape:window-y="25"
     inkscape:current-layer="layer1"
     showguides="true"
     inkscape:guide-bbox="true"
     inkscape:snap-bbox="true"
     inkscape:object-paths="true"
     inkscape:object-nodes="true"
     inkscape:bbox-paths="true"
     inkscape:bbox-nodes="true"
     inkscape:snap-center="true"
     inkscape:snap-intersection-line-segments="true"
     inkscape:snap-guide="true">
    <sodipodi:guide
       orientation="0,1"
       position="19.469636,119.13563"
       id="guide2509" />
    <sodipodi:guide
       orientation="0,1"
       position="-26.88664,9.2712552"
       id="guide2511" />
    <sodipodi:guide
       orientation="1,0"
       position="9.5030366,65.130568"
       id="guide3370" />
    <sodipodi:guide
       orientation="1,0"
       position="119.31497,53.921187"
       id="guide3372" />
  </sodipodi:namedview>
  <g
     inkscape:groupmode="layer"
     id="layer2"
     inkscape:label="Hintergrund"
     style="display:inline" />
  <g
     inkscape:groupmode="layer"
     id="layer1"
     inkscape:label="Wegzeichen"
     transform="translate(-14.388239,-20.759691)"
     style="display:inline">
    <rect
       style="fill:#ffffff"
       id="rect2414"
       width="128"
       height="128"
       x="0.4655025"
       y="0"
       transform="translate(14.388239,20.759691)" />
    <g
       id="g2596"
       transform="matrix(6.4838219e-2,0,0,6.4838219e-2,184.5434,196.20291)">
      <path
         id="path2559"
         transform="translate(14.388239,20.759691)"
         d="M -1898.75,-2340 C -1964.8903,-2339.7966 -2018.0376,-2331.1118 -2075.0938,-2311.8125 C -2140.9266,-2288.1469 -2200.6496,-2257.1887 -2262.1564,-2212.9168 C -2301.5259,-2182.9152 -2329.8698,-2151.7482 -2359.125,-2114.0523 C -2397.6057,-2066.0026 -2435.9987,-2011.663 -2453.125,-1951.6875 C -2474.1145,-1893.3361 -2486.8682,-1832.9436 -2491,-1771.0625 C -2492.8438,-1698.8164 -2484.7821,-1625.334 -2463.5625,-1556.1562 C -2439.3319,-1479.8812 -2399.7352,-1409.4328 -2347.0312,-1349.1875 C -2304.1021,-1299.678 -2253.203,-1255.7133 -2197.5938,-1221.1562 C -2129.1583,-1180.5066 -2051.3443,-1158.04 -1973.4375,-1145.1875 C -1894.6739,-1137.4668 -1814.6105,-1141.2875 -1738.3125,-1163.4062 C -1670.8373,-1182.3942 -1608.3562,-1218.2443 -1550.7188,-1257.625 C -1522.4465,-1274.9413 -1500.1471,-1298.9046 -1478.75,-1323.875 C -1421.9119,-1325.975 -1364.4702,-1317.1363 -1314.25,-1289.1875 C -1232.839,-1248.0397 -1177.7226,-1160.2287 -1084.7812,-1142.3125 C -1040.1785,-1135.1661 -993.15193,-1138.884 -954.625,-1164.1875 C -896.9913,-1201.1919 -861.74484,-1264.1346 -833.53125,-1325.125 C -824.19086,-1346.0189 -813.80207,-1376.3867 -807.40625,-1404.625 C -799.06285,-1441.4621 -796.23001,-1474.7153 -798.25,-1478.7188 C -811.91442,-1496.8461 -831.35465,-1459.569 -843.75,-1447.7188 C -879.75601,-1396.6536 -899.76723,-1334.2299 -947.5,-1291.5938 C -989.70129,-1254.22 -1057.9197,-1251.3286 -1100.1875,-1290.3438 C -1154.953,-1342.5204 -1171.0248,-1424.6942 -1230.5312,-1473.5938 C -1262.2311,-1504.9034 -1306.3519,-1515.0218 -1348.9688,-1521.3438 C -1324.2897,-1573.5654 -1312.5486,-1630.9592 -1305.0938,-1687.75 C -1300.5026,-1788.4587 -1309.3089,-1892.8974 -1354.8438,-1984.3438 C -1386.0477,-2058.5365 -1437.9843,-2122.3684 -1493.9062,-2179.2812 C -1561.9788,-2238.9526 -1639.7833,-2290.0267 -1728.4375,-2312.4688 C -1783.2024,-2329.8125 -1837.8219,-2339.3763 -1898.75,-2340 z M -1936.3125,-2236.1562 C -1862.6874,-2234.5065 -1793.7092,-2205.1679 -1732.125,-2166.625 C -1633.7387,-2097.9438 -1562.9015,-1994.985 -1520.9375,-1883.4688 C -1481.6264,-1767.2287 -1473.1717,-1638.1729 -1507.4062,-1519.6562 C -1530.5292,-1457.9542 -1556.8092,-1393.1607 -1608.625,-1349.6875 C -1655.7634,-1308.7203 -1708.368,-1271.3748 -1769.6562,-1255.75 C -1856.8126,-1234.5941 -1953.3968,-1246.4857 -2030.1562,-1293.875 C -2131.5821,-1355.8834 -2212.0392,-1450.5458 -2262.9375,-1557.5625 C -2330.1403,-1717.5034 -2333.7985,-1911.7153 -2244.5312,-2064.2188 C -2184.271,-2173.7863 -2058.4336,-2234.1595 -1936.3125,-2236.1562 z"
         style="fill:#aa0000;fill-rule:evenodd;stroke:none;stroke-width:1px;stroke-linecap:butt;stroke-linejoin:miter;stroke-opacity:1"
         sodipodi:nodetypes="cccccccccccccccccsccccccccccccccccccccc" />
      <path
         transform="translate(14.388239,20.759691)"
         id="path2566"
         d="M -1895.2725,-1811.8516 C -1915.5068,-1811.8715 -1937.6204,-1805.7569 -1950.3093,-1788.9423 C -1970.6656,-1763.6329 -1973.074,-1723.556 -1951.4115,-1698.2665 C -1936.8383,-1681.1132 -1914.2368,-1670.1096 -1891.5519,-1671.5475 C -1864.1416,-1675.0906 -1842.5729,-1698.248 -1835.0965,-1724.003 C -1828.1666,-1747.2764 -1833.6794,-1774.5311 -1851.5455,-1791.5406 C -1862.9917,-1803.2948 -1878.7219,-1811.2874 -1895.2725,-1811.8516 z"
         style="fill:#aa0000;fill-rule:evenodd;stroke:none;stroke-width:1px;stroke-linecap:butt;stroke-linejoin:miter;stroke-opacity:1" />
    </g>
  </g>
</svg>
